<?xml version="1.0" encoding="utf-8"?>
<!-- Generator: Adobe Illustrator 22.1.0, SVG Export Plug-In . SVG Version: 6.00 Build 0)  -->
<svg version="1.1" id="favicon" xmlns="http://www.w3.org/2000/svg" xmlns:xlink="http://www.w3.org/1999/xlink" x="0px" y="0px"
	 viewBox="0 0 1200 1200" enable-background="new 0 0 1200 1200" xml:space="preserve">
<polygon fill="#FFFFFF" points="952.7,1090.5 233.7,1090.5 66.4,907.3 64.1,672.2 233.7,532 233.7,111.5 952.7,111.5 952.7,523 
	1135.8,658.6 1131.3,925.4 "/>
<path d="M609.4,1165.1h-19.1c-63.2-2.7-125.5-23.9-176.2-61.5c-91.5,23.5-193,9.9-271.2-44.5C60.1,1004.4,6.8,910,0,811.3v-43.7
	c7.7-121,88.1-232.7,200.1-278.8c-0.3-118.2,0-315.6-0.1-433.9h800c0,118.2,0,315.7,0,434c112.3,45.7,192.3,157.9,200,278.8v42.6
	c-5.1,61.5-25.7,122.2-62.9,171.8c-47.7,65.1-120.2,111.4-199.5,126.5c-50.3,10.9-102.5,6-152.2-5.4
	C735,1141.5,672.4,1162,609.4,1165.1z M656.9,1068.1c93.2-23.3,164-113,165-209c-2.1-24.3,16.4-48.5,41.1-50
	c23.2-2.6,45.6,15.8,48.2,38.7c0.3,62.4-17.4,124.9-51.5,177.1c97.8,7.8,195.5-52.8,232.5-143.5c29.1-67.5,23.9-148.8-14-211.9
	c-24.6-43-64.2-76.8-109.5-96.4c-19.2-8.1-38.5-16.2-57.8-24.2c-0.2-106,0-291.1-0.1-397c-207.7,0-415.3,0-623,0
	c-0.1,105.9,0.2,291-0.2,396.9c-28.3,12.1-57.7,22.2-84.2,37.9C147,620,106,678.2,93.2,742.5c-17,79.5,11,166.4,71.4,220.8
	c46.7,43.4,111.5,66.4,175.1,62c-28.9-43.7-46.5-95.1-50.6-147.4c-0.1-14.1-2.5-29.3,3.7-42.6c8.4-18.7,30.5-30.1,50.6-25.1
	c18.9,3.7,33.8,21.3,34.9,40.5c-2.3,68.4,31.1,136.3,85.1,177.9C517,1071.2,590.9,1085.8,656.9,1068.1z"/>
<path d="M688.3,316.1L688.3,316.1c-24.6,0-44.7,20-44.7,44.7v222.6c0,24.6,20,44.7,44.7,44.7l0,0c24.6,0,44.7-20,44.7-44.7V360.6
	C732.9,336.1,713,316.1,688.3,316.1z"/>
<path d="M512.3,316.1L512.3,316.1c-24.6,0-44.7,20-44.7,44.7v222.6c0,24.6,20,44.7,44.7,44.7l0,0c24.6,0,44.7-20,44.7-44.7V360.6
	C557,336.1,537,316.1,512.3,316.1z"/>
</svg>
