<?xml version="1.0" encoding="utf-8"?>
<!-- Generator: Adobe Illustrator 22.1.0, SVG Export Plug-In . SVG Version: 6.00 Build 0)  -->
<svg version="1.1" id="glutenfree" xmlns="http://www.w3.org/2000/svg" xmlns:xlink="http://www.w3.org/1999/xlink" x="0px" y="0px"
	 viewBox="0 0 1000 1000" style="enable-background:new 0 0 1000 1000;" xml:space="preserve">
<style type="text/css">
	.st0{fill:#66CCCC;}
	.st1{fill:#E8BB00;stroke:#000000;stroke-width:16;stroke-miterlimit:10;}
</style>
<circle id="back" cx="500" cy="500" r="500"/>
<circle id="color" class="st0" cx="500" cy="500" r="400"/>
<g id="grain">
	<path class="st1" d="M491.7,256.5c-19.8-24.2-23.6-43.4-23.4-53.4c0.7-46.2,15.9-83.4,34-82.9s32.2,38.4,31.5,84.6
		c-0.1,8.4-2.4,28.2-24.5,51.7"/>
	<path class="st1" d="M488.7,324.8c-16.3-5.5-38.9-19.4-57.8-38.4c-32.6-32.8-48.5-69.6-35.5-82.2c13-12.6,49.9,3.8,82.5,36.6
		c7.9,8,14.9,16.2,20.7,24.3"/>
	
		<ellipse transform="matrix(0.7135 -0.7006 0.7006 0.7135 -28.7219 457.6503)" class="st1" cx="545.3" cy="263.9" rx="83.8" ry="32.7"/>
	<path class="st1" d="M500.1,353.9c6.3-9,14.2-18.1,23.2-27c33.1-32.3,70-48,82.5-34.9s-4.2,49.9-37.3,82.2
		c-24.2,23.7-51.8,38.6-69.1,39.7"/>
	<ellipse transform="matrix(0.708 -0.7062 0.7062 0.708 -114.4428 423.593)" class="st1" cx="455" cy="350.2" rx="32.7" ry="83.8"/>
	<path class="st1" d="M488.6,497.3c-16.3-5.5-38.9-19.4-57.8-38.4c-32.6-32.8-48.5-69.6-35.5-82.2c13-12.6,49.9,3.8,82.5,36.6
		c7.9,8,14.9,16.2,20.7,24.3"/>
	
		<ellipse transform="matrix(0.7135 -0.7006 0.7006 0.7135 -149.5211 507.0457)" class="st1" cx="545.3" cy="436.4" rx="83.8" ry="32.7"/>
	<path class="st1" d="M499.9,526.4c6.3-9,14.2-18.1,23.2-27c33.1-32.3,70-48,82.5-34.9s-4.2,49.9-37.3,82.2
		c-24.2,23.7-51.8,38.6-69.1,39.7"/>
	
		<ellipse transform="matrix(0.708 -0.7062 0.7062 0.708 -236.4149 473.8377)" class="st1" cx="454.8" cy="522.8" rx="32.7" ry="83.8"/>
	<path class="st1" d="M487.9,670.7c-16.3-5.5-38.9-19.4-57.8-38.4c-32.6-32.8-48.5-69.6-35.5-82.2s49.9,3.8,82.5,36.6
		c7.9,8,14.9,16.2,20.7,24.3"/>
	
		<ellipse transform="matrix(0.7135 -0.7006 0.7006 0.7135 -271.2175 556.2379)" class="st1" cx="544.6" cy="609.8" rx="83.8" ry="32.7"/>
	<path class="st1" d="M499.2,699.8c6.3-9,14.2-18.1,23.2-27c33.1-32.3,70-48,82.5-34.9s-4.2,49.9-37.3,82.2
		c-24.2,23.7-51.8,38.6-69.1,39.7"/>
	
		<ellipse transform="matrix(0.708 -0.7062 0.7062 0.708 -358.9856 523.9573)" class="st1" cx="454.1" cy="696.1" rx="32.7" ry="83.8"/>
</g>
<path id="stick" d="M505,884h-10c-11,0-20-9-20-20V754h50v110C525,875,516,884,505,884z"/>
<g id="cross">
	<polygon points="123.2,175.1 65.8,257 876.8,824.9 934.2,743 	"/>
</g>
</svg>
