<?xml version="1.0" encoding="utf-8"?>
<!-- Generator: Adobe Illustrator 22.1.0, SVG Export Plug-In . SVG Version: 6.00 Build 0)  -->
<svg version="1.1" id="glutenfree" xmlns="http://www.w3.org/2000/svg" xmlns:xlink="http://www.w3.org/1999/xlink" x="0px" y="0px"
	 viewBox="0 0 1000 1000" style="enable-background:new 0 0 1000 1000;" xml:space="preserve">
<style type="text/css">
	.st0{fill:#66CCCC;}
	.st1{fill:#FFB903;stroke:#000000;stroke-width:16;stroke-miterlimit:10;}
</style>
<circle id="back" cx="500" cy="500" r="500"/>
<circle id="color" class="st0" cx="500" cy="500" r="400"/>
<g id="grain">
	<path class="st1" d="M628.1,358.7c4.3-42.9,19.3-65.4,29.3-75c45.7-44.3,96.9-65.9,114.1-47.7c17.2,18.2-6.1,68.9-51.8,113.3
		c-8.3,8.1-29.8,25.2-74.3,26.5"/>
	<path class="st1" d="M558.5,422.5c-10.5-21.3-19-56.9-18.9-93.8c0.2-63.9,20.6-115.2,45.5-114.8c25,0.4,45,52.3,44.8,116.2
		c-0.1,15.5-1.3,30.4-3.5,43.9"/>
	
		<ellipse transform="matrix(9.121996e-03 -1 1 9.121996e-03 248.7508 1087.4275)" class="st1" cx="673.1" cy="418.2" rx="45.1" ry="115.6"/>
	<path class="st1" d="M541.2,461.9c14.9-2.6,31.5-3.8,49-3.7c63.9,0.8,115.1,21.5,114.6,46.4c-0.6,24.9-52.8,44.5-116.6,43.8
		c-46.7-0.5-88.2-12.9-106.1-28.6"/>
	
		<ellipse transform="matrix(1.272804e-03 -1 1 1.272804e-03 85.9093 914.6296)" class="st1" cx="500.9" cy="414.3" rx="115.6" ry="45.1"/>
	<path class="st1" d="M390.1,590.6c-10.5-21.3-19-56.9-18.9-93.8c0.2-63.9,20.6-115.2,45.5-114.8c25,0.4,45,52.3,44.8,116.2
		c-0.1,15.5-1.3,30.4-3.5,43.9"/>
	
		<ellipse transform="matrix(9.121996e-03 -1 1 9.121996e-03 -86.1381 1085.9659)" class="st1" cx="504.9" cy="586.4" rx="45.1" ry="115.6"/>
	<path class="st1" d="M372.7,630c14.9-2.6,31.5-3.8,49-3.7c63.9,0.8,115.1,21.5,114.6,46.4c-0.6,24.9-52.8,44.5-116.6,43.8
		c-46.7-0.5-88.2-12.9-106.1-28.6"/>
	
		<ellipse transform="matrix(1.272804e-03 -1 1 1.272804e-03 -250.5945 913.9741)" class="st1" cx="332.3" cy="582.4" rx="115.6" ry="45.1"/>
</g>
<path id="stick" d="M236.3,777.6l-10.7-10.7c-11.8-11.8-15.1-27.9-7.4-35.6l77.8-77.8l53.7,53.7L271.9,785
	C264.1,792.8,248.1,789.4,236.3,777.6z"/>
<g id="cross">
	<polygon points="123.2,175.1 65.8,257 876.8,824.9 934.2,743 	"/>
</g>
</svg>
