<?xml version="1.0" encoding="utf-8"?>
<!-- Generator: Adobe Illustrator 22.1.0, SVG Export Plug-In . SVG Version: 6.00 Build 0)  -->
<svg version="1.1" id="vegan" xmlns="http://www.w3.org/2000/svg" xmlns:xlink="http://www.w3.org/1999/xlink" x="0px" y="0px"
	 viewBox="0 0 1000 1000" style="enable-background:new 0 0 1000 1000;" xml:space="preserve">
<style type="text/css">
	.st0{fill:#41A748;}
</style>
<circle id="back" cx="500" cy="500" r="500"/>
<circle id="color" class="st0" cx="500" cy="500" r="400"/>
<path id="v" d="M433.3,676.4c-32.9-86.9-65.2-170.8-133.3-236.9c-38.8-37.6-104-94.5-161-101.6c81.9,69.1,150.2,154.8,198.3,250.8
	c45.8,91.5,81.9,210,81.9,313.2h97.5c-0.8-73.5,10.6-149.3,36.4-218.2c18.7-50,44.9-111.8,86.1-147.6c46-1.7,99.3-5.3,124.2-49.5
	c18.9-33.7,13.2-72.6,23.4-108.5c10-35.2,34.6-60.8,50.2-93c-21.6,21.9-53.1,44.4-82.1,55.5c-27.2,10.4-57.3,6.6-85.7,10.2
	c-97.9,12.4-119.4,96.8-91.4,181.2c16.9-79.3,45.6-123,130.3-130.3c-8.4,30.5-47.8,55-67.7,77.7c-31.8,36.3-60.1,66-86.9,115.9
	c-26.8,50-32.7,75.3-54.4,108.9C482.5,728.3,449.2,726.1,433.3,676.4z"/>
</svg>
