<?xml version="1.0" encoding="utf-8"?>
<!-- Generator: Adobe Illustrator 22.1.0, SVG Export Plug-In . SVG Version: 6.00 Build 0)  -->
<svg version="1.1" id="fork_knife" xmlns="http://www.w3.org/2000/svg" xmlns:xlink="http://www.w3.org/1999/xlink" x="0px" y="0px"
	 viewBox="0 0 1000 1000" style="enable-background:new 0 0 1000 1000;" xml:space="preserve">
<path id="path" d="M210.3,0l-26.8,366.6c-9.8,53.6,118.8,100.8,116.6,155.4l-6.6,411.4c-2.6,66.6,56.6,66.6,56.6,66.6
	s59.2,0,56.6-66.6L400.4,522c-2-54.6,115.6-100.8,116.6-155.4L490.4,0H457l-3.4,306.6l-70,13.4L367,0h-33.4l-16.6,320l-70-13.4
	L243.5,0H210.3z M817,0C655,0,627,166,627,500c0,58,56.8,66.6,84,66.6l-5.4,366.6c-6,66.4,60.6,66.6,60.6,66.6s50.6,0,50.6-66.6"/>
</svg>
